<svg id="svg" version="1.1" xmlns="http://www.w3.org/2000/svg" xmlns:xlink="http://www.w3.org/1999/xlink" width="400" height="400" viewBox="0, 0, 400,400"><g id="svgg"><path id="path0" d="M210.800 114.250 C 208.606 114.452,202.047 115.804,198.081 116.873 C 195.275 117.628,194.959 117.635,189.997 117.030 C 166.715 114.191,142.536 120.656,128.780 133.397 C 127.761 134.341,125.958 135.458,124.684 135.934 C 105.014 143.294,92.410 161.787,95.768 178.361 L 96.442 181.685 94.639 185.343 C 82.938 209.077,98.866 237.038,125.000 238.643 C 129.887 238.943,130.692 239.293,131.217 241.347 C 136.000 260.085,156.316 268.663,183.000 263.213 C 194.894 260.784,196.664 261.310,207.778 270.575 C 222.253 282.644,229.223 285.600,243.200 285.600 C 261.343 285.600,275.355 277.200,283.900 261.200 L 285.503 258.200 289.110 256.856 C 301.742 252.149,308.793 238.466,308.798 218.648 C 308.801 206.422,306.259 196.117,301.375 188.557 C 299.910 186.290,299.841 186.024,299.553 181.600 C 298.407 163.958,290.552 151.089,276.109 143.188 C 273.960 142.013,273.443 141.494,272.344 139.413 C 263.051 121.827,238.341 111.724,210.800 114.250 M229.100 121.138 C 230.385 121.837,230.231 122.528,228.249 124.961 C 227.286 126.144,226.167 127.671,225.762 128.356 C 224.707 130.143,224.094 130.180,220.350 128.683 C 216.572 127.172,209.541 125.384,208.680 125.714 C 207.872 126.024,207.388 129.970,208.078 130.617 C 208.365 130.886,210.310 131.522,212.400 132.031 C 223.859 134.818,227.143 138.707,224.997 146.949 C 224.298 149.632,224.341 149.749,226.411 150.806 C 228.718 151.982,229.103 151.843,230.160 149.451 C 231.442 146.553,231.570 146.520,235.323 148.132 C 243.255 151.537,247.600 151.397,247.600 147.738 C 247.600 145.673,247.501 145.611,242.347 144.440 C 232.903 142.294,228.242 136.792,230.947 130.984 C 233.634 125.212,240.832 123.165,247.778 126.197 C 259.074 131.128,268.384 140.800,261.835 140.800 C 259.672 140.800,259.189 141.353,259.478 143.504 C 259.770 145.683,259.950 145.793,264.108 146.357 C 280.874 148.629,292.822 164.220,292.796 183.790 C 292.791 187.369,291.492 189.799,287.439 193.808 C 281.637 199.546,275.690 200.990,266.693 198.847 C 263.242 198.025,263.045 198.102,262.020 200.693 C 261.015 203.235,262.234 203.986,268.994 204.990 C 272.682 205.538,273.916 205.562,277.053 205.152 C 281.266 204.601,281.522 204.695,282.847 207.291 C 285.008 211.528,291.711 215.994,293.205 214.194 C 294.321 212.849,293.501 209.933,291.639 208.625 C 286.181 204.790,286.165 203.044,291.536 197.702 C 296.465 192.801,296.737 192.815,298.847 198.087 C 303.646 210.076,303.333 229.219,298.165 239.800 C 292.398 251.607,283.842 254.004,269.579 247.807 C 259.059 243.236,257.645 243.370,243.190 250.310 C 228.890 257.175,219.263 259.315,208.400 258.044 C 196.358 256.635,190.979 251.874,193.405 244.771 C 196.300 236.293,214.220 230.060,216.016 236.907 C 217.394 242.161,217.871 243.422,219.316 245.633 C 221.416 248.846,222.507 249.365,223.820 247.775 C 225.195 246.111,225.451 244.857,224.667 243.628 C 218.322 233.685,223.261 225.298,235.711 224.875 C 244.978 224.560,249.168 227.372,249.191 233.920 C 249.200 236.415,249.214 236.447,250.587 237.020 C 253.682 238.313,254.783 237.494,254.814 233.874 C 254.832 231.766,255.819 230.522,258.978 228.626 C 267.896 223.271,276.227 223.458,281.233 229.125 C 282.947 231.067,283.255 231.637,284.398 235.000 L 285.078 237.000 287.227 237.124 C 289.677 237.265,290.404 236.705,290.110 234.900 C 288.191 223.110,276.390 216.377,264.286 220.166 C 261.433 221.059,259.349 222.001,254.279 224.686 C 253.066 225.328,253.388 225.474,248.641 222.124 C 247.959 221.642,246.532 220.948,245.472 220.582 C 242.685 219.621,242.582 218.932,244.629 214.921 C 246.811 210.644,247.388 207.375,247.072 201.062 C 246.791 195.426,246.575 195.026,244.023 195.399 C 241.433 195.778,241.435 195.772,241.417 202.503 C 241.398 209.275,240.862 211.179,237.957 214.793 C 231.873 222.365,216.667 221.751,213.197 213.793 C 211.938 210.906,208.775 206.843,207.081 205.936 C 206.341 205.540,206.072 205.674,204.918 207.009 C 203.208 208.987,203.256 209.738,205.230 211.879 C 215.122 222.610,200.538 235.769,181.554 233.243 C 175.554 232.445,170.747 230.125,167.120 226.277 L 164.841 223.858 163.200 224.400 C 159.629 225.578,159.661 226.482,163.423 230.826 C 165.846 233.625,165.840 233.966,163.325 235.884 C 159.601 238.723,156.844 243.822,158.264 245.242 C 159.982 246.959,162.417 246.489,163.660 244.200 C 169.776 232.938,190.739 238.899,185.859 250.513 C 182.028 259.630,157.129 260.864,146.000 252.488 C 137.039 245.744,133.975 230.877,139.305 220.000 C 146.107 206.118,164.895 202.439,176.135 212.787 C 178.306 214.785,178.634 214.911,179.891 214.222 C 183.956 211.993,184.050 210.665,180.349 207.741 C 174.459 203.086,174.468 203.198,179.571 198.017 C 190.047 187.379,204.846 185.319,214.555 193.146 C 216.488 194.705,216.825 194.704,218.606 193.141 C 220.601 191.389,220.350 190.632,216.901 188.007 C 212.484 184.644,213.642 180.908,220.813 175.390 C 233.683 165.486,249.331 169.054,256.018 183.416 C 257.870 187.393,258.164 187.659,260.203 187.199 C 262.937 186.583,263.184 185.512,261.513 181.532 C 260.349 178.758,260.564 178.385,264.002 177.216 C 270.013 175.171,273.923 170.738,275.011 164.734 C 275.579 161.598,270.248 161.292,269.183 164.400 C 266.432 172.431,258.644 174.694,252.240 169.324 C 239.912 158.985,218.397 164.702,209.052 180.800 L 207.774 183.000 203.787 182.873 C 192.297 182.506,184.525 169.263,190.146 159.627 C 191.468 157.361,193.277 153.085,193.750 151.107 C 194.267 148.948,198.189 147.935,201.885 149.005 C 207.120 150.521,208.908 154.619,206.606 159.826 C 205.490 162.348,205.599 162.855,207.620 164.555 C 211.212 167.578,214.784 157.464,212.387 151.058 C 210.568 146.196,203.286 142.072,198.202 143.026 C 195.527 143.528,194.929 142.862,193.865 138.199 C 192.139 130.635,184.562 123.873,183.221 128.700 C 182.514 131.246,182.676 131.954,184.168 132.834 C 192.620 137.821,189.774 155.383,179.247 163.205 C 177.017 164.862,178.542 168.800,181.414 168.800 C 182.673 168.800,182.800 168.921,183.207 170.500 C 184.386 175.075,185.549 177.634,188.131 181.330 C 190.127 184.189,190.043 184.376,185.777 186.568 C 179.861 189.607,176.244 192.606,172.114 197.895 C 169.510 201.230,169.458 201.270,168.038 201.013 C 148.292 197.447,132.012 209.257,130.084 228.547 C 129.695 232.444,129.154 232.711,123.461 231.819 C 105.944 229.072,93.803 211.947,97.782 195.600 C 99.464 188.691,100.128 188.293,104.482 191.588 C 105.588 192.425,107.777 193.607,109.346 194.215 C 110.916 194.822,112.290 195.397,112.400 195.493 C 112.510 195.588,112.604 198.847,112.609 202.733 C 112.624 213.631,114.025 216.856,117.800 214.682 C 119.611 213.639,119.647 213.404,118.647 209.200 C 116.855 201.669,118.248 195.763,122.000 194.990 C 132.496 192.827,136.211 180.685,129.113 171.747 C 128.391 170.838,127.129 169.294,126.308 168.316 C 124.017 165.585,123.541 164.160,124.263 162.200 C 124.587 161.320,124.948 160.300,125.064 159.932 C 125.336 159.077,122.187 155.600,121.140 155.600 C 120.225 155.600,118.171 158.683,117.546 160.994 C 116.479 164.942,117.434 167.408,122.312 173.306 C 129.250 181.692,126.660 189.056,116.808 188.960 C 104.366 188.838,98.036 175.693,103.950 162.263 C 107.469 154.274,118.164 144.871,127.000 141.999 C 129.042 141.335,130.073 140.677,132.855 138.260 C 136.965 134.690,142.713 131.219,148.149 129.025 C 151.331 127.741,152.000 128.469,152.000 133.217 C 152.000 136.683,151.582 137.007,146.655 137.359 C 142.836 137.631,137.806 139.293,137.020 140.542 C 135.909 142.306,138.863 145.281,140.890 144.439 C 150.611 140.399,161.742 143.530,166.265 151.577 C 167.614 153.976,167.867 154.104,170.041 153.474 C 172.599 152.733,172.768 152.124,171.260 149.062 C 169.725 145.944,167.041 143.048,163.782 140.993 C 159.157 138.078,157.611 135.672,157.604 131.378 C 157.600 128.739,159.167 125.504,160.668 125.056 C 168.567 122.698,185.024 122.188,193.094 124.051 C 194.942 124.478,195.501 124.411,199.460 123.294 C 203.145 122.254,206.847 121.530,213.000 120.645 C 215.625 120.268,228.208 120.653,229.100 121.138 M139.867 153.867 C 139.225 154.508,139.587 158.821,140.300 159.031 C 148.990 161.592,153.339 173.513,149.000 182.878 C 147.928 185.193,148.070 185.826,149.961 187.172 C 151.670 188.389,152.529 188.225,153.477 186.500 C 154.625 184.410,156.000 180.227,156.000 178.824 C 156.000 178.180,156.180 177.179,156.399 176.602 L 156.799 175.552 160.499 175.810 C 165.743 176.176,170.808 174.518,170.797 172.438 C 170.794 171.951,168.263 168.799,167.875 168.800 C 167.834 168.800,166.853 169.160,165.696 169.600 C 160.667 171.511,156.741 169.667,153.900 164.058 C 150.689 157.721,142.187 151.546,139.867 153.867 M268.213 252.671 C 269.966 253.569,272.750 254.706,274.400 255.199 C 279.272 256.652,279.612 257.144,277.833 260.179 C 275.104 264.836,274.385 265.088,269.069 263.246 C 258.971 259.747,255.152 255.268,259.294 251.782 C 261.154 250.218,263.972 250.499,268.213 252.671 M247.062 259.734 C 252.356 262.932,258.473 265.884,263.789 267.807 C 269.794 269.979,270.100 270.576,266.500 273.090 C 260.575 277.226,260.051 277.256,253.105 273.861 C 239.383 267.153,234.602 262.716,237.057 258.969 C 238.959 256.067,241.286 256.245,247.062 259.734 M221.461 262.731 C 221.935 263.099,223.547 264.437,225.044 265.704 C 229.931 269.841,235.157 272.556,244.093 275.597 C 252.403 278.425,252.477 279.818,244.314 279.767 C 227.099 279.660,209.740 270.167,214.776 263.613 C 216.265 261.676,219.547 261.243,221.461 262.731 " stroke="none" fill="#1a1a1a" fill-rule="evenodd"></path><path id="path1" d="M0.000 200.000 L 0.000 400.000 200.000 400.000 L 400.000 400.000 400.000 200.000 L 400.000 0.000 200.000 0.000 L 0.000 0.000 0.000 200.000 M235.696 115.364 C 253.599 119.319,266.040 127.483,272.344 139.413 C 273.443 141.494,273.960 142.013,276.109 143.188 C 290.552 151.089,298.407 163.958,299.553 181.600 C 299.841 186.024,299.910 186.290,301.375 188.557 C 306.259 196.117,308.801 206.422,308.798 218.648 C 308.793 238.466,301.742 252.149,289.110 256.856 L 285.503 258.200 283.900 261.200 C 275.355 277.200,261.343 285.600,243.200 285.600 C 229.223 285.600,222.253 282.644,207.778 270.575 C 196.664 261.310,194.894 260.784,183.000 263.213 C 156.316 268.663,136.000 260.085,131.217 241.347 C 130.692 239.293,129.887 238.943,125.000 238.643 C 98.866 237.038,82.938 209.077,94.639 185.343 L 96.442 181.685 95.768 178.361 C 92.410 161.787,105.014 143.294,124.684 135.934 C 125.958 135.458,127.761 134.341,128.780 133.397 C 142.536 120.656,166.715 114.191,189.997 117.030 C 194.959 117.635,195.275 117.628,198.081 116.873 C 209.940 113.677,225.277 113.062,235.696 115.364 M213.000 120.645 C 206.847 121.530,203.145 122.254,199.460 123.294 C 195.501 124.411,194.942 124.478,193.094 124.051 C 185.024 122.188,168.567 122.698,160.668 125.056 C 159.167 125.504,157.600 128.739,157.604 131.378 C 157.611 135.672,159.157 138.078,163.782 140.993 C 167.041 143.048,169.725 145.944,171.260 149.062 C 172.768 152.124,172.599 152.733,170.041 153.474 C 167.867 154.104,167.614 153.976,166.265 151.577 C 161.742 143.530,150.611 140.399,140.890 144.439 C 138.863 145.281,135.909 142.306,137.020 140.542 C 137.806 139.293,142.836 137.631,146.655 137.359 C 151.582 137.007,152.000 136.683,152.000 133.217 C 152.000 128.469,151.331 127.741,148.149 129.025 C 142.713 131.219,136.965 134.690,132.855 138.260 C 130.073 140.677,129.042 141.335,127.000 141.999 C 118.164 144.871,107.469 154.274,103.950 162.263 C 98.036 175.693,104.366 188.838,116.808 188.960 C 126.660 189.056,129.250 181.692,122.312 173.306 C 117.434 167.408,116.479 164.942,117.546 160.994 C 118.171 158.683,120.225 155.600,121.140 155.600 C 122.187 155.600,125.336 159.077,125.064 159.932 C 124.948 160.300,124.587 161.320,124.263 162.200 C 123.541 164.160,124.017 165.585,126.308 168.316 C 127.129 169.294,128.391 170.838,129.113 171.747 C 136.211 180.685,132.496 192.827,122.000 194.990 C 118.248 195.763,116.855 201.669,118.647 209.200 C 119.647 213.404,119.611 213.639,117.800 214.682 C 114.025 216.856,112.624 213.631,112.609 202.733 C 112.604 198.847,112.510 195.588,112.400 195.493 C 112.290 195.397,110.916 194.822,109.346 194.215 C 107.777 193.607,105.588 192.425,104.482 191.588 C 100.128 188.293,99.464 188.691,97.782 195.600 C 93.803 211.947,105.944 229.072,123.461 231.819 C 129.154 232.711,129.695 232.444,130.084 228.547 C 132.012 209.257,148.292 197.447,168.038 201.013 C 169.458 201.270,169.510 201.230,172.114 197.895 C 176.244 192.606,179.861 189.607,185.777 186.568 C 190.043 184.376,190.127 184.189,188.131 181.330 C 185.549 177.634,184.386 175.075,183.207 170.500 C 182.800 168.921,182.673 168.800,181.414 168.800 C 178.542 168.800,177.017 164.862,179.247 163.205 C 189.774 155.383,192.620 137.821,184.168 132.834 C 182.676 131.954,182.514 131.246,183.221 128.700 C 184.562 123.873,192.139 130.635,193.865 138.199 C 194.929 142.862,195.527 143.528,198.202 143.026 C 203.286 142.072,210.568 146.196,212.387 151.058 C 214.784 157.464,211.212 167.578,207.620 164.555 C 205.599 162.855,205.490 162.348,206.606 159.826 C 208.908 154.619,207.120 150.521,201.885 149.005 C 198.189 147.935,194.267 148.948,193.750 151.107 C 193.277 153.085,191.468 157.361,190.146 159.627 C 184.525 169.263,192.297 182.506,203.787 182.873 L 207.774 183.000 209.052 180.800 C 218.397 164.702,239.912 158.985,252.240 169.324 C 258.644 174.694,266.432 172.431,269.183 164.400 C 270.248 161.292,275.579 161.598,275.011 164.734 C 273.923 170.738,270.013 175.171,264.002 177.216 C 260.564 178.385,260.349 178.758,261.513 181.532 C 263.184 185.512,262.937 186.583,260.203 187.199 C 258.164 187.659,257.870 187.393,256.018 183.416 C 249.331 169.054,233.683 165.486,220.813 175.390 C 213.642 180.908,212.484 184.644,216.901 188.007 C 220.350 190.632,220.601 191.389,218.606 193.141 C 216.825 194.704,216.488 194.705,214.555 193.146 C 204.846 185.319,190.047 187.379,179.571 198.017 C 174.468 203.198,174.459 203.086,180.349 207.741 C 184.050 210.665,183.956 211.993,179.891 214.222 C 178.634 214.911,178.306 214.785,176.135 212.787 C 164.895 202.439,146.107 206.118,139.305 220.000 C 133.975 230.877,137.039 245.744,146.000 252.488 C 157.129 260.864,182.028 259.630,185.859 250.513 C 190.739 238.899,169.776 232.938,163.660 244.200 C 162.417 246.489,159.982 246.959,158.264 245.242 C 156.844 243.822,159.601 238.723,163.325 235.884 C 165.840 233.966,165.846 233.625,163.423 230.826 C 159.661 226.482,159.629 225.578,163.200 224.400 L 164.841 223.858 167.120 226.277 C 170.747 230.125,175.554 232.445,181.554 233.243 C 200.538 235.769,215.122 222.610,205.230 211.879 C 203.256 209.738,203.208 208.987,204.918 207.009 C 206.072 205.674,206.341 205.540,207.081 205.936 C 208.775 206.843,211.938 210.906,213.197 213.793 C 216.667 221.751,231.873 222.365,237.957 214.793 C 240.862 211.179,241.398 209.275,241.417 202.503 C 241.435 195.772,241.433 195.778,244.023 195.399 C 246.575 195.026,246.791 195.426,247.072 201.062 C 247.388 207.375,246.811 210.644,244.629 214.921 C 242.582 218.932,242.685 219.621,245.472 220.582 C 246.532 220.948,247.959 221.642,248.641 222.124 C 253.388 225.474,253.066 225.328,254.279 224.686 C 259.349 222.001,261.433 221.059,264.286 220.166 C 276.390 216.377,288.191 223.110,290.110 234.900 C 290.404 236.705,289.677 237.265,287.227 237.124 L 285.078 237.000 284.398 235.000 C 283.255 231.637,282.947 231.067,281.233 229.125 C 276.227 223.458,267.896 223.271,258.978 228.626 C 255.819 230.522,254.832 231.766,254.814 233.874 C 254.783 237.494,253.682 238.313,250.587 237.020 C 249.214 236.447,249.200 236.415,249.191 233.920 C 249.168 227.372,244.978 224.560,235.711 224.875 C 223.261 225.298,218.322 233.685,224.667 243.628 C 225.451 244.857,225.195 246.111,223.820 247.775 C 222.507 249.365,221.416 248.846,219.316 245.633 C 217.871 243.422,217.394 242.161,216.016 236.907 C 214.220 230.060,196.300 236.293,193.405 244.771 C 190.979 251.874,196.358 256.635,208.400 258.044 C 219.263 259.315,228.890 257.175,243.190 250.310 C 257.645 243.370,259.059 243.236,269.579 247.807 C 283.842 254.004,292.398 251.607,298.165 239.800 C 303.333 229.219,303.646 210.076,298.847 198.087 C 296.737 192.815,296.465 192.801,291.536 197.702 C 286.165 203.044,286.181 204.790,291.639 208.625 C 293.501 209.933,294.321 212.849,293.205 214.194 C 291.711 215.994,285.008 211.528,282.847 207.291 C 281.522 204.695,281.266 204.601,277.053 205.152 C 273.916 205.562,272.682 205.538,268.994 204.990 C 262.234 203.986,261.015 203.235,262.020 200.693 C 263.045 198.102,263.242 198.025,266.693 198.847 C 275.690 200.990,281.637 199.546,287.439 193.808 C 291.492 189.799,292.791 187.369,292.796 183.790 C 292.822 164.220,280.874 148.629,264.108 146.357 C 259.950 145.793,259.770 145.683,259.478 143.504 C 259.189 141.353,259.672 140.800,261.835 140.800 C 268.384 140.800,259.074 131.128,247.778 126.197 C 240.832 123.165,233.634 125.212,230.947 130.984 C 228.242 136.792,232.903 142.294,242.347 144.440 C 247.501 145.611,247.600 145.673,247.600 147.738 C 247.600 151.397,243.255 151.537,235.323 148.132 C 231.570 146.520,231.442 146.553,230.160 149.451 C 229.103 151.843,228.718 151.982,226.411 150.806 C 224.341 149.749,224.298 149.632,224.997 146.949 C 227.143 138.707,223.859 134.818,212.400 132.031 C 210.310 131.522,208.365 130.886,208.078 130.617 C 207.388 129.970,207.872 126.024,208.680 125.714 C 209.541 125.384,216.572 127.172,220.350 128.683 C 224.094 130.180,224.707 130.143,225.762 128.356 C 226.167 127.671,227.286 126.144,228.249 124.961 C 231.397 121.096,230.732 120.680,221.200 120.560 C 217.350 120.512,213.660 120.550,213.000 120.645 M144.085 154.433 C 148.137 156.030,151.507 159.335,153.900 164.058 C 156.741 169.667,160.667 171.511,165.696 169.600 C 166.853 169.160,167.834 168.800,167.875 168.800 C 168.263 168.799,170.794 171.951,170.797 172.438 C 170.808 174.518,165.743 176.176,160.499 175.810 L 156.799 175.552 156.399 176.602 C 156.180 177.179,156.000 178.180,156.000 178.824 C 156.000 180.227,154.625 184.410,153.477 186.500 C 152.529 188.225,151.670 188.389,149.961 187.172 C 148.070 185.826,147.928 185.193,149.000 182.878 C 153.339 173.513,148.990 161.592,140.300 159.031 C 139.587 158.821,139.225 154.508,139.867 153.867 C 140.356 153.378,141.949 153.592,144.085 154.433 M259.294 251.782 C 255.152 255.268,258.971 259.747,269.069 263.246 C 274.385 265.088,275.104 264.836,277.833 260.179 C 279.612 257.144,279.272 256.652,274.400 255.199 C 272.750 254.706,269.966 253.569,268.213 252.671 C 263.972 250.499,261.154 250.218,259.294 251.782 M238.757 257.377 C 232.785 260.747,237.603 266.283,253.105 273.861 C 260.051 277.256,260.575 277.226,266.500 273.090 C 270.100 270.576,269.794 269.979,263.789 267.807 C 258.473 265.884,252.356 262.932,247.062 259.734 C 242.419 256.929,240.510 256.388,238.757 257.377 M216.867 262.139 C 216.134 262.407,215.193 263.070,214.776 263.613 C 209.740 270.167,227.099 279.660,244.314 279.767 C 252.477 279.818,252.403 278.425,244.093 275.597 C 235.157 272.556,229.931 269.841,225.044 265.704 C 220.999 262.280,220.705 262.079,219.400 261.857 C 218.740 261.744,217.600 261.871,216.867 262.139 " stroke="none" fill="#fbfbfb" fill-rule="evenodd"></path></g></svg>