<?xml version="1.0" standalone="no"?>
<!DOCTYPE svg PUBLIC "-//W3C//DTD SVG 20010904//EN"
 "http://www.w3.org/TR/2001/REC-SVG-20010904/DTD/svg10.dtd">
<svg version="1.0" xmlns="http://www.w3.org/2000/svg"
 width="512.000000pt" height="512.000000pt" viewBox="0 0 512.000000 512.000000"
 preserveAspectRatio="xMidYMid meet">

<g transform="translate(0.000000,512.000000) scale(0.100000,-0.100000)"
fill="#000000" stroke="none">
<path d="M2635 3646 c-38 -7 -86 -18 -105 -23 -23 -7 -59 -7 -100 -1 -84 12
-286 4 -375 -16 -145 -31 -261 -84 -370 -166 -37 -28 -95 -63 -128 -79 -135
-61 -240 -164 -301 -291 -29 -61 -31 -72 -31 -185 -1 -98 -4 -126 -19 -155
-102 -190 -26 -456 166 -583 69 -45 125 -65 222 -80 l78 -12 23 -62 c54 -151
188 -240 385 -257 73 -6 143 -1 321 25 81 12 88 11 130 -9 24 -12 87 -58 139
-102 160 -135 275 -183 440 -183 170 0 296 49 411 163 36 36 81 93 100 127 31
57 39 64 90 83 147 53 239 240 239 485 0 130 -22 232 -74 340 -35 74 -44 104
-49 165 -13 185 -124 363 -280 447 -34 19 -55 39 -69 67 -66 130 -215 232
-414 286 -101 28 -326 36 -429 16z m305 -81 c9 -11 5 -23 -26 -60 -21 -25 -43
-45 -49 -45 -6 0 -37 9 -69 20 -32 12 -74 22 -94 23 -34 2 -37 0 -37 -27 0
-27 4 -29 75 -50 41 -12 85 -28 96 -36 47 -30 66 -96 44 -154 -8 -22 -6 -28
17 -43 25 -17 27 -17 37 1 31 51 29 50 87 29 30 -11 73 -23 96 -27 40 -6 43
-4 49 20 8 32 1 38 -61 53 -68 17 -132 56 -151 93 -39 74 34 160 136 160 66 0
160 -45 235 -114 60 -54 71 -88 31 -88 -30 0 -40 -14 -32 -44 5 -20 14 -24 60
-29 200 -20 365 -234 366 -474 0 -47 -4 -58 -43 -105 -72 -89 -171 -124 -278
-98 -48 12 -53 11 -66 -6 -7 -10 -13 -23 -13 -30 0 -22 72 -39 165 -38 l90 1
27 -44 c31 -49 106 -93 120 -70 16 24 7 44 -32 76 -55 44 -53 69 10 131 27 28
54 50 60 50 34 0 80 -182 80 -315 0 -273 -117 -445 -288 -421 -23 3 -82 22
-130 42 -127 54 -156 52 -322 -23 -206 -94 -255 -107 -385 -107 -119 0 -173
11 -226 47 -48 32 -63 68 -49 113 28 84 120 144 221 144 62 0 73 -7 83 -59 8
-46 53 -121 72 -121 8 0 19 11 25 24 10 20 8 31 -10 59 -14 22 -21 51 -21 82
0 41 5 52 38 85 102 102 312 62 312 -60 0 -33 4 -39 26 -44 33 -9 42 0 46 44
3 30 10 39 57 67 68 41 146 58 199 44 46 -13 109 -73 120 -115 7 -25 14 -32
40 -34 27 -3 32 0 32 18 0 55 -62 144 -121 176 -79 41 -179 35 -282 -17 -65
-33 -80 -35 -96 -15 -7 8 -32 24 -57 35 -24 12 -44 25 -44 30 0 5 11 33 25 63
20 44 25 68 25 140 0 50 -4 90 -11 93 -5 4 -22 4 -36 0 -24 -6 -25 -8 -20 -57
18 -153 -82 -269 -221 -256 -73 7 -124 36 -145 83 -11 22 -33 55 -50 72 -29
31 -32 32 -49 16 -25 -22 -23 -42 10 -76 22 -23 27 -37 27 -80 0 -68 -26 -104
-107 -148 -61 -33 -67 -34 -173 -34 -96 0 -116 4 -159 25 -27 13 -64 39 -82
57 -36 36 -51 40 -78 20 -17 -12 -15 -16 19 -61 l37 -48 -39 -38 c-49 -47 -73
-98 -52 -111 27 -17 47 -9 68 27 67 113 271 82 288 -43 14 -102 -138 -167
-331 -143 -49 6 -102 20 -133 36 -68 33 -135 107 -156 174 -21 66 -22 182 -1
243 21 63 93 140 159 172 100 49 239 32 323 -41 41 -35 42 -35 66 -17 36 26
32 43 -19 83 -25 19 -45 43 -45 53 0 30 95 116 164 148 115 54 221 51 308 -7
l52 -35 23 24 24 24 -44 36 c-34 27 -44 42 -40 57 10 38 83 109 144 139 160
80 313 31 390 -124 33 -67 43 -74 73 -52 17 12 17 18 6 51 -14 42 -8 66 16 66
10 0 36 11 60 25 31 18 50 39 69 80 31 63 28 85 -14 85 -25 0 -30 -5 -36 -30
-4 -17 -20 -44 -37 -60 -42 -42 -112 -43 -177 0 -102 65 -180 80 -288 55 -116
-26 -215 -102 -267 -203 -16 -32 -17 -32 -74 -26 -71 8 -104 24 -138 69 -61
80 -68 156 -23 253 55 122 51 117 93 120 98 8 154 -65 111 -147 -13 -26 -13
-30 9 -50 27 -25 35 -19 61 42 20 48 19 83 -4 133 -24 54 -73 83 -153 92 l-62
7 -18 63 c-30 100 -118 171 -134 107 -5 -19 1 -31 29 -58 81 -76 53 -259 -56
-359 -37 -33 -40 -39 -29 -62 6 -13 20 -26 32 -28 16 -2 26 -17 39 -55 10 -28
30 -70 45 -93 15 -22 24 -45 21 -50 -3 -5 -33 -24 -66 -41 -39 -21 -85 -59
-128 -106 l-68 -73 -56 10 c-70 13 -160 -1 -230 -37 -101 -50 -188 -169 -202
-274 -14 -98 -8 -92 -83 -87 -227 17 -401 264 -338 481 9 31 21 59 27 62 5 4
27 -4 47 -18 20 -14 55 -34 77 -44 l40 -18 -4 -73 c-3 -70 13 -167 29 -177 5
-3 20 0 35 7 20 9 25 16 19 32 -12 38 -16 173 -6 193 6 11 29 25 52 32 87 26
137 100 127 187 -4 42 -16 63 -89 161 -29 39 -30 44 -18 73 12 28 11 33 -10
55 -13 14 -27 25 -32 25 -4 0 -18 -20 -29 -44 -30 -59 -20 -98 40 -174 55 -69
69 -109 51 -153 -38 -91 -203 -73 -275 29 -27 40 -30 51 -30 125 0 70 4 91 29
141 44 89 138 177 244 228 48 23 111 61 140 85 54 44 180 113 205 113 19 0 31
-88 16 -106 -7 -8 -31 -14 -58 -14 -45 0 -131 -31 -131 -47 0 -4 7 -17 15 -27
14 -18 16 -18 76 -2 41 12 76 16 108 11 66 -9 145 -57 176 -106 21 -33 30 -39
48 -33 35 10 37 17 20 52 -20 42 -56 78 -115 119 -75 51 -88 140 -26 186 39
29 219 44 352 29 72 -8 114 -8 137 -1 128 39 374 54 399 24z m498 -1679 c26
-13 66 -29 90 -35 24 -7 42 -18 42 -26 0 -21 -39 -82 -56 -89 -27 -10 -150 39
-191 77 -25 22 -30 66 -11 85 19 19 75 14 126 -12z m-252 -101 c67 -38 168
-84 237 -108 9 -4 17 -13 17 -22 0 -17 -86 -75 -112 -75 -43 0 -265 122 -293
163 -21 30 -19 44 10 73 30 30 36 29 141 -31z m-310 -60 c66 -54 110 -78 234
-125 52 -20 95 -40 95 -46 0 -19 -163 -16 -241 6 -156 42 -252 117 -223 173
27 51 64 49 135 -8z"/>
<path d="M1790 3120 c0 -20 6 -33 18 -37 41 -15 76 -49 98 -97 28 -60 31 -125
9 -191 -17 -49 -15 -59 15 -75 24 -13 36 7 60 95 l17 59 64 1 c46 0 73 5 93
18 l28 19 -22 23 c-18 19 -27 22 -41 15 -53 -29 -122 -3 -155 59 -13 26 -32
56 -42 68 -30 34 -93 73 -118 73 -20 0 -24 -5 -24 -30z"/>
</g>
</svg>
