<svg id="svg" version="1.1" xmlns="http://www.w3.org/2000/svg" xmlns:xlink="http://www.w3.org/1999/xlink" width="400" height="400" viewBox="0, 0, 400,400"><g id="svgg"><path id="path0" d="M75.566 181.173 L 74.393 182.345 74.497 250.762 L 74.600 319.178 75.511 320.089 L 76.422 321.000 145.046 321.000 L 213.669 321.000 214.601 319.917 C 216.051 318.231,216.053 318.109,215.923 248.382 C 215.787 175.954,215.992 181.386,213.353 180.382 C 212.729 180.145,186.666 180.000,144.543 180.000 L 76.738 180.000 75.566 181.173 " stroke="none" fill="#fbfcfc" fill-rule="evenodd"></path><path id="path1" d="M0.000 200.000 L 0.000 400.000 200.000 400.000 L 400.000 400.000 400.000 200.000 L 400.000 0.000 200.000 0.000 L 0.000 0.000 0.000 200.000 M213.353 180.382 C 215.992 181.386,215.787 175.954,215.923 248.382 C 216.053 318.109,216.051 318.231,214.601 319.917 L 213.669 321.000 145.046 321.000 L 76.422 321.000 75.511 320.089 L 74.600 319.178 74.497 250.762 L 74.393 182.345 75.566 181.173 L 76.738 180.000 144.543 180.000 C 186.666 180.000,212.729 180.145,213.353 180.382 " stroke="none" fill="#6B6B6B" fill-rule="evenodd"></path></g></svg>